<?xml version="1.0" encoding="utf-8"?>
<!-- Generator: Adobe Illustrator 25.3.0, SVG Export Plug-In . SVG Version: 6.00 Build 0)  -->
<svg version="1.1" id="Layer_1" xmlns="http://www.w3.org/2000/svg" xmlns:xlink="http://www.w3.org/1999/xlink" x="0px" y="0px"
	 viewBox="0 0 512 512" style="enable-background:new 0 0 512 512;" xml:space="preserve">
<style type="text/css">
	.st0{fill:#1DB954;}
	.st1{fill:#FFFFFF;}
	.st2{fill:none;}
</style>
<rect class="st0" width="512" height="512"/>
<path class="st1" d="M348.47,153.86c-7.88,0-14.29,6.42-14.29,14.32v175.75c0.72,19,27.91,18.93,28.62,0V168.17
	C362.81,160.28,356.38,153.86,348.47,153.86z"/>
<path class="st1" d="M255,153.86c-7.91,0-14.34,6.42-14.34,14.32v175.75c0.72,18.97,27.96,18.96,28.68,0V168.17
	C269.34,160.28,262.91,153.86,255,153.86"/>
<path class="st1" d="M301.73,206.21c-7.88,0-14.28,6.42-14.28,14.32v71.05c0.72,19,27.91,18.93,28.62,0v-71.05
	C316.07,212.63,309.64,206.21,301.73,206.21"/>
<path class="st1" d="M395.2,232.38c-7.88,0-14.28,6.42-14.28,14.32v18.69c0.72,19,27.91,18.93,28.62,0V246.7
	C409.54,238.81,403.11,232.38,395.2,232.38"/>
<path class="st1" d="M114.8,232.38c-7.91,0-14.34,6.42-14.34,14.32v18.69c0.72,18.95,27.91,18.99,28.62,0V246.7
	C129.08,238.81,122.67,232.38,114.8,232.38"/>
<path class="st1" d="M161.53,180.03c-7.91,0-14.34,6.42-14.34,14.32v123.39c0.72,18.95,27.91,18.99,28.62,0V194.35
	C175.82,186.45,169.41,180.03,161.53,180.03"/>
<path class="st1" d="M208.27,101.5c-7.91,0-14.34,6.42-14.34,14.32v280.45c0.72,18.95,27.91,18.99,28.62,0V115.82
	C222.55,107.93,216.14,101.5,208.27,101.5"/>
<rect x="-1" y="0" class="st2" width="512" height="512"/>
</svg>
